<?xml version="1.0" standalone="no"?>
<!DOCTYPE svg PUBLIC "-//W3C//DTD SVG 20010904//EN"
 "http://www.w3.org/TR/2001/REC-SVG-20010904/DTD/svg10.dtd">
<svg version="1.0" xmlns="http://www.w3.org/2000/svg"
 width="600.000000pt" height="600.000000pt" viewBox="0 0 600.000000 600.000000"
 preserveAspectRatio="xMidYMid meet">
<metadata>
Created by potrace 1.11, written by Peter Selinger 2001-2013
</metadata>
<g transform="translate(0.000000,600.000000) scale(0.100000,-0.100000)"
fill="#000000" stroke="none">
<path d="M2058 5412 l-197 -2 -4 -1818 c-3 -1625 -5 -1827 -20 -1907 -69 -384
-194 -526 -487 -555 -229 -22 -438 58 -697 267 -57 46 -105 83 -108 83 -3 0
-4 -138 -3 -307 l3 -308 85 -57 c104 -70 269 -155 370 -191 156 -55 195 -61
370 -62 145 0 174 3 240 23 243 76 444 271 549 534 56 139 95 314 122 543 8
69 14 530 18 1498 l6 1399 84 -234 c94 -264 490 -1368 859 -2398 l250 -695
148 -3 149 -2 186 517 c103 285 370 1030 595 1656 l409 1139 3 -1956 2 -1956
220 0 220 0 -2 2392 -3 2392 -27 -1 c-16 -1 -153 -1 -306 -2 l-279 -1 -116
-322 c-64 -178 -226 -629 -360 -1003 -134 -374 -342 -953 -462 -1287 -120
-335 -221 -608 -225 -608 -5 0 -929 2534 -1138 3123 l-35 97 -76 0 c-42 0 -92
4 -111 8 -19 4 -124 6 -232 4z"/>
</g>
</svg>
